<svg width="59" height="59" viewBox="0 0 59 59" fill="none" xmlns="http://www.w3.org/2000/svg"><g clip-path="url(#clip0_0_776)"><path d="M56.9868 15.3458C56.9444 14.8554 55.8499 13.9137 55.3867 13.7457C54.9224 13.5767 54.4026 13.6917 54.0533 14.0392L47.0463 21.0462L37.9449 11.9448L45.0921 4.82448C45.4419 4.47636 45.556 3.95844 45.3875 3.49665C45.2173 3.03395 44.0951 2.05372 43.6019 2.01124C39.2613 1.63866 35.0083 3.18257 31.9333 6.24639C27.7219 10.4423 26.6067 16.5695 28.5816 21.7921C28.3657 21.9733 28.1527 22.1653 27.9426 22.3723L4.08518 44.7997C4.07677 44.8078 4.06847 44.8168 4.05937 44.8248C1.25365 47.6201 1.25365 52.1682 4.05937 54.9639C6.86555 57.759 11.3975 57.725 14.2027 54.9297C14.2148 54.9185 14.2259 54.9072 14.2369 54.8947L36.5527 30.942C36.7561 30.7385 36.945 30.5255 37.1231 30.3069C42.3669 32.2779 48.5211 31.1695 52.7362 26.9708C55.8105 23.9068 57.3613 19.6694 56.9868 15.3458Z" stroke="#currentColor" stroke-width="2" stroke-linejoin="round"/></g><defs><clipPath id="clip0_0_776"><rect width="59" height="59" fill="white"/></clipPath></defs></svg>