<svg width="107" height="59" viewBox="0 0 107 59" fill="currentColor" xmlns="http://www.w3.org/2000/svg"><path d="M96.8879 41.5079C97.4699 40.5969 97.7283 39.5019 97.6046 38.4099C97.3421 36.0701 95.1809 34.2375 92.6856 34.2375H84.0729C84.7058 32.0663 84.956 28.8008 84.9414 27.5596C84.9021 24.1991 82.132 21.4648 78.7653 21.4648H77.7157C76.5314 21.4648 75.5674 22.4348 75.5674 23.6271C75.5674 26.3932 74.4838 31.4843 72.5248 33.455C71.3281 34.6596 70.3266 35.1573 68.9401 35.8455L68.6231 36.0035H62.3702C61.8844 36.0035 61.4912 36.3991 61.4912 36.888V55.3172C61.4912 55.8054 61.8844 56.2017 62.3702 56.2017H68.674C69.2161 56.3898 69.8068 56.6327 70.4345 56.8957C72.6801 57.8333 75.4748 59.0002 79.2992 59.0002H87.6042C89.3025 59.0002 90.866 58.1859 91.7866 56.8226C92.4735 55.8054 92.712 54.5972 92.4805 53.4061C94.0557 52.6236 95.0959 50.9897 95.0959 49.1723C95.0959 48.8769 95.0689 48.585 95.015 48.2979C96.1812 47.7259 97.0608 46.6899 97.44 45.4021C97.835 44.0618 97.6257 42.6531 96.8879 41.5079ZM63.2493 37.7725H67.9503V54.4327H63.2493V37.7725ZM95.1311 42.0994C95.812 42.8653 96.0452 43.912 95.754 44.8997C95.4627 45.8873 94.7021 46.6374 93.7182 46.9063C93.4773 46.9717 93.2745 47.1386 93.1632 47.3633C93.0513 47.5885 93.0396 47.8509 93.1316 48.085C93.2675 48.4317 93.3373 48.7979 93.3373 49.1723C93.3373 50.4997 92.45 51.6701 91.1795 52.0186C90.9381 52.0847 90.7365 52.2515 90.6246 52.4762C90.5132 52.7014 90.5015 52.9638 90.5935 53.1979C90.9533 54.1119 90.8607 55.0459 90.3321 55.8284C89.7391 56.7064 88.7194 57.2312 87.6042 57.2312H79.2997C75.8252 57.2312 73.2098 56.1386 71.109 55.2612C70.6243 55.0589 70.1584 54.8643 69.7084 54.6939V37.4369L69.7183 37.4316C71.1394 36.7258 72.3666 36.1167 73.7683 34.7056C76.195 32.265 77.326 26.6521 77.326 23.6271C77.326 23.4101 77.5007 23.2338 77.7163 23.2338H78.7659C81.1744 23.2338 83.1563 25.1838 83.1845 27.5802C83.2044 29.3079 82.7385 33.4031 82.0236 34.6903C81.8712 34.9645 81.8747 35.2988 82.0329 35.5695C82.1912 35.8401 82.4795 36.0064 82.7913 36.0064H92.6874C94.3024 36.0064 95.6954 37.1492 95.8595 38.6098C95.9562 39.463 95.6977 40.2838 95.1322 40.9212C94.8334 41.2562 94.8334 41.7639 95.1311 42.0994Z" fill="currentColor"/><path d="M7.22903 16.0818C5.61269 16.0818 4.26327 15.7407 3.18077 15.0586C2.1131 14.3617 1.31235 13.4126 0.778511 12.2115C0.259504 10.9955 0 9.60905 0 8.05203C0 6.50983 0.266918 5.13817 0.800754 3.93704C1.33459 2.72108 2.13534 1.76462 3.20302 1.06767C4.28552 0.355891 5.64235 0 7.27352 0C8.43016 0 9.42369 0.18536 10.2541 0.556079C11.0993 0.91197 11.7815 1.40873 12.3005 2.04637C12.8195 2.68401 13.1754 3.43286 13.3681 4.29293H11.4107C11.1883 3.52184 10.7064 2.90644 9.96494 2.44675C9.23833 1.98706 8.31894 1.75721 7.20679 1.75721C5.96117 1.75721 4.95281 2.05379 4.18172 2.64694C3.42545 3.22526 2.86937 3.98894 2.51348 4.93798C2.15759 5.8722 1.97964 6.88797 1.97964 7.9853C1.97964 9.14194 2.165 10.2022 2.53572 11.1661C2.90644 12.1299 3.48476 12.901 4.27069 13.4794C5.05661 14.0429 6.05756 14.3246 7.27352 14.3246C8.01495 14.3246 8.67484 14.2208 9.25316 14.0132C9.84631 13.8056 10.3357 13.509 10.7212 13.1235C11.1216 12.7379 11.3959 12.2931 11.5442 11.7889H13.6573C13.4349 12.6489 13.0345 13.4052 12.4562 14.0577C11.8927 14.6953 11.1735 15.1921 10.2986 15.548C9.42369 15.9039 8.4005 16.0818 7.22903 16.0818Z" fill="currentColor"/><path d="M14.9962 20.2413V14.1467C15.5301 14.1467 15.9305 14.0503 16.1974 13.8575C16.4791 13.6499 16.6941 13.3756 16.8424 13.0345C16.9611 12.7379 17.0649 12.382 17.1538 11.9668C17.2428 11.5368 17.3169 11.0771 17.3763 10.5877C17.4504 10.0836 17.5023 9.57939 17.532 9.07521C17.6358 7.59233 17.7099 6.10946 17.7544 4.62658C17.7989 3.1437 17.8285 1.66082 17.8434 0.177946H27.8973V14.1467H29.7879V20.2413H27.8528V15.9039H16.9314V20.2413H14.9962ZM18.5774 14.1467H25.9621V1.93516H19.734L19.5338 8.05203C19.519 8.40792 19.4968 8.83054 19.4671 9.31989C19.4523 9.80924 19.4078 10.3282 19.3337 10.8769C19.2743 11.4107 19.1854 11.9594 19.0667 12.5229C18.9481 13.0864 18.785 13.6276 18.5774 14.1467Z" fill="currentColor"/><path d="M32.2121 15.9039V0.177946H42.7776V1.93516H34.1473V7.22903H41.9101V9.00848H34.1473V14.1467H42.7776V15.9039H32.2121Z" fill="currentColor"/><path d="M44.1645 16.0596V14.1467C44.5352 14.1467 44.8615 14.0725 45.1432 13.9242C45.4249 13.7611 45.6622 13.5387 45.855 13.2569C46.0626 12.9752 46.2109 12.6638 46.2998 12.3227C46.4185 11.8779 46.5 11.4182 46.5445 10.9436C46.6038 10.4543 46.6409 9.96494 46.6557 9.47559C46.6854 8.98624 46.7002 8.51913 46.7002 8.07427L46.8559 0.177946H57.3325V15.9039H55.3973V1.93516H48.7911L48.6576 6.82865C48.628 7.91115 48.5983 8.95658 48.5686 9.96494C48.5538 10.9585 48.4648 11.863 48.3017 12.6786C48.1534 13.4942 47.8569 14.1763 47.412 14.725C47.0858 15.1254 46.6557 15.4442 46.1219 15.6814C45.6029 15.9039 44.9504 16.0299 44.1645 16.0596Z" fill="currentColor"/><path d="M59.498 15.9039L65.348 0.177946H68.1284L73.9561 15.9039H71.8652L70.6196 12.5229H62.8345L61.5889 15.9039H59.498ZM63.4796 10.7657H69.9746L66.7271 1.86843L63.4796 10.7657Z" fill="currentColor"/><path d="M76.1119 15.9039V0.177946H78.0471V7.29576H86.4773V0.177946H88.4124V15.9039H86.4773V9.07521H78.0471V15.9039H76.1119Z" fill="currentColor"/><path d="M98.8125 16.0818C97.1813 16.0818 95.8171 15.7333 94.7197 15.0364C93.6224 14.3394 92.792 13.383 92.2285 12.167C91.6798 10.9511 91.4055 9.57939 91.4055 8.05203C91.4055 6.50983 91.6798 5.13076 92.2285 3.9148C92.792 2.69884 93.6224 1.74238 94.7197 1.04543C95.8171 0.348476 97.1813 0 98.8125 0C100.444 0 101.8 0.348476 102.883 1.04543C103.98 1.74238 104.803 2.69884 105.352 3.9148C105.915 5.13076 106.197 6.50983 106.197 8.05203C106.197 9.57939 105.915 10.9511 105.352 12.167C104.803 13.383 103.98 14.3394 102.883 15.0364C101.8 15.7333 100.444 16.0818 98.8125 16.0818ZM98.8125 14.3246C100.058 14.3246 101.081 14.0429 101.882 13.4794C102.683 12.901 103.269 12.1374 103.639 11.1883C104.025 10.2393 104.218 9.19384 104.218 8.05203C104.218 7.19196 104.106 6.38379 103.884 5.62752C103.676 4.85643 103.35 4.18172 102.905 3.60339C102.46 3.02507 101.897 2.57279 101.215 2.24656C100.533 1.92033 99.7319 1.75721 98.8125 1.75721C97.5817 1.75721 96.5585 2.04637 95.7429 2.62469C94.9422 3.20302 94.3416 3.9667 93.9412 4.91574C93.5557 5.86478 93.3629 6.91021 93.3629 8.05203C93.3629 9.17901 93.5557 10.217 93.9412 11.1661C94.3268 12.1151 94.9199 12.8788 95.7207 13.4571C96.5363 14.0354 97.5669 14.3246 98.8125 14.3246Z" fill="currentColor"/><path d="M0.84524 41.3176V25.5917H6.36155C7.14747 25.5917 7.85925 25.6584 8.49689 25.7919C9.13453 25.9105 9.68319 26.1181 10.1429 26.4147C10.6174 26.7113 10.9807 27.1117 11.2328 27.6158C11.4849 28.12 11.6109 28.7576 11.6109 29.5287C11.6109 30.3295 11.4256 31.0413 11.0549 31.6641C10.699 32.2869 10.1429 32.7466 9.38662 33.0432C10.395 33.2211 11.1512 33.6511 11.6554 34.3333C12.1596 35.0006 12.4117 35.868 12.4117 36.9357C12.4117 37.781 12.2486 38.4853 11.9223 39.0488C11.6109 39.6123 11.1661 40.0646 10.5877 40.4057C10.0243 40.7319 9.37179 40.9691 8.63035 41.1174C7.88891 41.2509 7.09557 41.3176 6.25033 41.3176H0.84524ZM2.7804 39.5604H6.1836C6.64329 39.5604 7.11781 39.5382 7.60716 39.4937C8.11134 39.4344 8.57845 39.3232 9.00848 39.16C9.43852 38.9821 9.78699 38.7078 10.0539 38.337C10.3208 37.9663 10.4543 37.4696 10.4543 36.8467C10.4543 36.3129 10.3505 35.8755 10.1429 35.5344C9.95011 35.1933 9.68319 34.9264 9.34213 34.7336C9.0159 34.5409 8.63776 34.4074 8.20773 34.3333C7.77769 34.2591 7.34024 34.2221 6.89538 34.2221H2.7804V39.5604ZM2.7804 32.4871H5.80547C6.35413 32.4871 6.86572 32.4426 7.34025 32.3536C7.81477 32.2498 8.22997 32.0867 8.58586 31.8643C8.94175 31.6418 9.21609 31.3527 9.40886 30.9968C9.61646 30.6409 9.72026 30.196 9.72026 29.6622C9.72026 28.9801 9.56456 28.4759 9.25316 28.1497C8.94175 27.8234 8.53396 27.6084 8.02978 27.5046C7.52561 27.4008 6.97694 27.3489 6.38379 27.3489H2.7804V32.4871Z" fill="currentColor"/><path d="M21.4381 41.3176V25.5917H26.8876C28.0443 25.5917 29.0378 25.7845 29.8682 26.17C30.6986 26.5407 31.3289 27.1117 31.7589 27.8828C32.2038 28.6538 32.4262 29.6325 32.4262 30.8188C32.4262 31.9755 32.1667 32.9542 31.6477 33.7549C31.1435 34.5409 30.4466 35.134 29.5568 35.5344C28.6671 35.9348 27.6439 36.135 26.4873 36.135H23.3732V41.3176H21.4381ZM23.3732 34.3778H26.3983C27.5994 34.3778 28.5707 34.096 29.3121 33.5325C30.0684 32.9542 30.4466 32.02 30.4466 30.7299C30.4466 29.6029 30.1426 28.7576 29.5346 28.1942C28.9266 27.6307 28.0146 27.3489 26.7987 27.3489H23.3732V34.3778Z" fill="currentColor"/><path d="M41.9633 41.5178V38.9598H40.1838C38.9975 38.9302 37.9892 38.6484 37.1588 38.1146C36.3432 37.5808 35.7278 36.8542 35.3126 35.9348C34.8974 35.0154 34.6898 33.9774 34.6898 32.8207C34.7046 31.6048 34.9641 30.5593 35.4683 29.6844C35.9725 28.8095 36.662 28.1348 37.5369 27.6603C38.4118 27.1858 39.4053 26.9485 40.5175 26.9485H41.9633V24.7242H43.8985V26.9485H45.322C46.449 26.9485 47.4499 27.1858 48.3248 27.6603C49.1997 28.1348 49.8893 28.8095 50.3935 29.6844C50.8976 30.5593 51.1571 31.6048 51.172 32.8207C51.1868 33.9774 50.9718 35.0154 50.5269 35.9348C50.0821 36.8542 49.437 37.5808 48.5918 38.1146C47.7613 38.6484 46.753 38.9302 45.5667 38.9598H43.8985V41.5178H41.9633ZM40.5842 37.2916H41.9633V28.6168H40.6732C39.8428 28.6168 39.1236 28.7947 38.5156 29.1506C37.9225 29.5065 37.4628 29.9959 37.1365 30.6187C36.8103 31.2415 36.6472 31.9607 36.6472 32.7762C36.6472 33.6363 36.7806 34.4074 37.0476 35.0895C37.3145 35.7717 37.7371 36.3129 38.3154 36.7133C38.8937 37.0988 39.65 37.2916 40.5842 37.2916ZM43.8985 37.2916H45.2775C46.2117 37.2916 46.968 37.0988 47.5463 36.7133C48.1247 36.3129 48.5473 35.7717 48.8142 35.0895C49.0811 34.4074 49.2146 33.6363 49.2146 32.7762C49.2146 31.9607 49.0515 31.2415 48.7252 30.6187C48.399 29.9959 47.9319 29.5065 47.3239 29.1506C46.7308 28.7947 46.019 28.6168 45.1886 28.6168H43.8985V37.2916Z" fill="currentColor"/></svg>