<svg width="200" height="27" viewBox="0 0 200 27" fill="none" xmlns="http://www.w3.org/2000/svg"><path d="M0 21.7452V4.09208C0 2.29336 1.44852 0.835117 3.23526 0.835117C4.21796 0.835117 5.14962 1.2848 5.76221 2.05567L20.1582 18.1028H20.2347V0C23.119 0 25.4545 2.35118 25.4545 5.25482V23.7173C25.4545 25.5289 23.9933 27 22.1938 27C21.1983 27 20.2603 26.5439 19.6413 25.7602L5.29 9.68737H5.21343V26.9936C2.33551 27.0064 0 24.6488 0 21.7452Z" fill="white"/><path d="M29.8184 13.5C29.8184 5.79758 35.9664 0 43.9811 0C52.034 0 58.182 5.80398 58.182 13.5C58.182 21.196 52.034 27 43.9811 27C35.9664 27.0064 29.8184 21.2024 29.8184 13.5ZM52.9259 13.5C52.9259 8.69957 49.3072 4.72372 43.9811 4.72372C38.6868 4.72372 35.0744 8.70596 35.0744 13.5C35.0744 18.294 38.6931 22.2763 43.9811 22.2763C49.3072 22.2763 52.9259 18.3004 52.9259 13.5Z" fill="white"/><path d="M69.3617 24.4975L59.6367 0.729492H62.3098C64.1237 0.729492 65.753 1.84231 66.434 3.54048L73.034 20.1105H73.1104L79.7103 3.54048C80.385 1.84231 82.0206 0.729492 83.8345 0.729492H86.5458L76.7827 24.4975C76.159 26.0091 74.6951 26.9997 73.0785 26.9997C71.4492 27.0062 69.9854 26.0156 69.3617 24.4975Z" fill="white"/><path d="M82.9082 26.9998L93.5877 3.22498C94.2684 1.70318 95.7776 0.729492 97.4344 0.729492C99.0912 0.729492 100.6 1.70318 101.281 3.21853L111.999 26.9933H109.193C107.343 26.9933 105.661 25.91 104.897 24.2141L103.689 21.551H91.2181L90.0108 24.2141C89.2401 25.9036 87.564 26.9933 85.7145 26.9933H82.9082V26.9998ZM92.9841 17.0501H101.885L97.4922 7.06815H97.4151L92.9841 17.0501Z" fill="white"/><path d="M114.908 26.9998V4.8177C114.908 2.5608 116.722 0.729492 118.958 0.729492H125.595C133.631 0.729492 139.635 6.13315 139.635 13.8646C139.635 21.5961 133.631 26.9998 125.595 26.9998H114.908ZM120.178 22.228H125.601C130.903 22.228 134.378 18.7008 134.378 13.8582C134.378 9.01552 130.91 5.48832 125.601 5.48832H120.178V22.228Z" fill="white"/><path d="M144 26.9998V0.729492C146.813 0.729492 149.091 3.08956 149.091 6.00418V26.9933H144V26.9998Z" fill="white"/><path d="M152 26.9998L162.68 3.22498C163.36 1.70318 164.869 0.729492 166.526 0.729492C168.183 0.729492 169.692 1.70318 170.373 3.21853L181.091 26.9933H178.285C176.435 26.9933 174.753 25.91 173.982 24.2141L172.775 21.551H160.303L159.096 24.2141C158.326 25.9036 156.649 26.9933 154.8 26.9933H152V26.9998ZM162.082 17.0501H170.983L166.59 7.06815H166.513L162.082 17.0501Z" fill="white"/><path d="M184 26.9998V0.729492C186.943 0.729492 189.329 3.10891 189.329 6.04287V22.3054H200C200 24.8976 197.892 26.9933 195.298 26.9933H184V26.9998Z" fill="white"/></svg>