<svg width="289" height="52" viewBox="0 0 289 52" fill="none" xmlns="http://www.w3.org/2000/svg">
<path d="M37.6705 52H14.53C6.50609 52 0 45.5189 0 37.5258V14.4742C0 6.4811 6.50609 0 14.53 0H37.6705C45.6944 0 52.2005 6.4811 52.2005 14.4742V37.5258C52.2005 45.5189 45.6944 52 37.6705 52Z" fill="#5EBBC5"/>
<path d="M28.543 28.6594L37.2155 28.6182C39.851 28.6044 42.3762 27.6491 44.3563 25.9309L41.8932 23.3467L28.8396 23.4085L28.543 28.6594Z" fill="#DFE0E2"/>
<path d="M7.85156 26.0757L10.4043 28.7492L23.2647 28.6874L23.5545 23.4365L14.882 23.4778C12.3016 23.4915 9.81098 24.4125 7.85156 26.0757Z" fill="#DFE0E2"/>
<path d="M7.65863 33.3469L17.8145 43.9861C18.6907 44.907 19.8291 45.4294 21.002 45.56C21.4504 45.6081 21.8989 45.5943 22.3405 45.5325C23.2719 45.395 24.1688 45.0033 24.9277 44.3503L24.9553 44.3297C25.0105 44.2747 25.0657 44.2197 25.114 44.1648C26.8802 42.3022 27.9289 39.8692 28.0738 37.2988L30.5093 11.4294L44.3632 25.9448C44.3977 25.9105 44.4391 25.883 44.4736 25.8486C45.1842 25.1407 45.6465 24.2679 45.8534 23.3469C45.9362 22.9895 45.9776 22.6184 45.9776 22.2541C45.9845 20.9689 45.5154 19.6837 44.5564 18.6802L34.3936 8.02045C33.4346 7.01701 32.1651 6.48093 30.8819 6.42595C30.5162 6.4122 30.1367 6.43282 29.778 6.49467C28.8465 6.65275 27.9496 7.06512 27.1976 7.73866C27.1631 7.77302 27.1286 7.80739 27.0941 7.84175C25.2727 9.71804 24.1826 12.1923 24.0377 14.8108L21.9265 40.8177L7.85182 26.0754C7.79662 26.1235 7.73453 26.1785 7.67933 26.2266L7.65174 26.2472C6.9618 26.9689 6.52024 27.8486 6.33396 28.7627C6.27187 29.0582 6.23737 29.3606 6.23047 29.6631C6.23047 29.8074 6.23047 29.9517 6.23737 30.096C6.31326 31.2713 6.78242 32.4259 7.65863 33.3469Z" fill="white"/>
<path d="M72.6709 34.893V16.0064C72.6709 14.082 74.237 12.5219 76.1689 12.5219C77.2314 12.5219 78.2387 13.003 78.901 13.8277L94.4659 30.9961H94.5487V11.6284C97.6672 11.6284 100.192 14.1439 100.192 17.2504V37.003C100.192 38.9411 98.6125 40.515 96.6668 40.515C95.5905 40.515 94.5763 40.027 93.9071 39.1886L78.3905 21.9927H78.3077V40.5081C75.1961 40.5219 72.6709 37.9995 72.6709 34.893Z" fill="white"/>
<path d="M105.084 25.9998C105.084 17.718 111.742 11.4844 120.421 11.4844C129.142 11.4844 135.8 17.7249 135.8 25.9998C135.8 34.2747 129.142 40.5153 120.421 40.5153C111.742 40.5222 105.084 34.2816 105.084 25.9998ZM130.108 25.9998C130.108 20.8383 126.189 16.5634 120.421 16.5634C114.688 16.5634 110.776 20.8452 110.776 25.9998C110.776 31.1545 114.695 35.4363 120.421 35.4363C126.189 35.4363 130.108 31.1613 130.108 25.9998Z" fill="white"/>
<path d="M147.998 37.842L137.456 12.4468H140.354C142.32 12.4468 144.086 13.6358 144.825 15.4502L151.979 33.1547H152.062L159.217 15.4502C159.948 13.6358 161.721 12.4468 163.687 12.4468H166.627L156.043 37.842C155.367 39.4571 153.78 40.5155 152.027 40.5155C150.261 40.5224 148.674 39.464 147.998 37.842Z" fill="white"/>
<path d="M162.459 40.522L173.933 15.1818C174.664 13.5598 176.285 12.522 178.065 12.522C179.845 12.522 181.467 13.5598 182.198 15.1749L193.713 40.5151H190.698C188.711 40.5151 186.903 39.3605 186.082 37.5529L184.785 34.7144H171.387L170.09 37.5529C169.262 39.3536 167.461 40.5151 165.474 40.5151H162.459V40.522ZM173.284 29.9172H182.847L178.127 19.278H178.045L173.284 29.9172Z" fill="white"/>
<path d="M197.17 40.522V16.8794C197.17 14.4739 199.129 12.522 201.544 12.522H208.713C217.392 12.522 223.877 18.2814 223.877 26.522C223.877 34.7625 217.392 40.522 208.713 40.522H197.17ZM202.862 35.4361H208.719C214.446 35.4361 218.199 31.6766 218.199 26.5151C218.199 21.3536 214.453 17.5941 208.719 17.5941H202.862V35.4361Z" fill="white"/>
<path d="M228.113 40.522V12.522C231.232 12.522 233.757 15.0374 233.757 18.144V40.5151H228.113V40.522Z" fill="white"/>
<path d="M237.214 40.522L248.687 15.1818C249.419 13.5598 251.04 12.522 252.82 12.522C254.6 12.522 256.222 13.5598 256.953 15.1749L268.468 40.5151H265.453C263.466 40.5151 261.658 39.3605 260.83 37.5529L259.533 34.7144H246.135L244.838 37.5529C244.01 39.3536 242.209 40.5151 240.222 40.5151H237.214V40.522ZM248.046 29.9172H257.608L252.889 19.278H252.806L248.046 29.9172Z" fill="white"/>
<path d="M271.931 40.522V12.522C275.07 12.522 277.616 15.0581 277.616 18.1852V35.5185H289C289 38.2814 286.75 40.5151 283.984 40.5151H271.931V40.522Z" fill="white"/>
</svg>
