<svg width="375" height="3249" viewBox="0 0 375 3249" fill="none" xmlns="http://www.w3.org/2000/svg">
<path d="M239.162 587.243C271.767 477.288 387.335 414.584 497.289 447.188L738.982 518.858C848.937 551.463 911.641 667.03 879.037 776.985L807.367 1018.68C774.762 1128.63 659.195 1191.34 549.24 1158.73L307.547 1087.06C197.592 1054.46 134.888 938.89 167.493 828.936L239.162 587.243Z" fill="#5EBBC5"/>
<path d="M-137.471 -13.2193C-104.866 -123.174 10.701 -185.878 120.656 -153.273L362.349 -81.6039C472.303 -48.999 535.008 66.5685 502.403 176.523L430.733 418.216C398.128 528.171 282.561 590.875 172.606 558.27L-69.0868 486.601C-179.041 453.996 -241.746 338.428 -209.141 228.474L-137.471 -13.2193Z" fill="#00616B"/>
<path d="M423.325 439.101C392.759 512.664 323.268 560.819 246.571 566.358C277.137 492.795 346.628 444.64 423.325 439.101Z" fill="white"/>
<path d="M-115.2 2003.19C-36.3375 1902.36 109.326 1884.56 210.149 1963.42L431.769 2136.77C532.592 2215.64 550.395 2361.3 471.532 2462.12L298.183 2683.74C219.321 2784.57 73.6569 2802.37 -27.1659 2723.51L-248.786 2550.16C-349.609 2471.29 -367.411 2325.63 -288.549 2224.81L-115.2 2003.19Z" fill="#5EBBC5"/>
<path d="M-260.482 1225.54C-181.619 1124.72 -35.9555 1106.92 64.8673 1185.78L286.488 1359.13C387.31 1437.99 405.113 1583.66 326.25 1684.48L152.901 1906.1C74.0389 2006.92 -71.625 2024.72 -172.448 1945.86L-394.068 1772.51C-494.891 1693.65 -512.693 1547.99 -433.831 1447.16L-260.482 1225.54Z" fill="#00616B"/>
<path d="M136.661 1924.75C74.8113 1988.62 -17.055 2010.18 -98.9591 1984.54C-37.1098 1920.66 54.7566 1899.11 136.661 1924.75Z" fill="white"/>
</svg>
