<svg width="53" height="52" viewBox="0 0 53 52" fill="none" xmlns="http://www.w3.org/2000/svg"><path d="M37.6705 52H14.53C6.50609 52 0 45.5189 0 37.5258V14.4742C0 6.4811 6.50609 0 14.53 0H37.6705C45.6944 0 52.2005 6.4811 52.2005 14.4742V37.5258C52.2005 45.5189 45.6944 52 37.6705 52Z" fill="#5EBBC5"/><path d="M28.543 28.6594L37.2155 28.6182C39.851 28.6044 42.3762 27.6491 44.3563 25.9309L41.8932 23.3467L28.8396 23.4085L28.543 28.6594Z" fill="#DFE0E2"/><path d="M7.85156 26.0757L10.4043 28.7492L23.2647 28.6874L23.5545 23.4365L14.882 23.4778C12.3016 23.4915 9.81098 24.4125 7.85156 26.0757Z" fill="#DFE0E2"/><path d="M7.65863 33.3469L17.8145 43.9861C18.6907 44.907 19.8291 45.4294 21.002 45.56C21.4504 45.6081 21.8989 45.5943 22.3405 45.5325C23.2719 45.395 24.1688 45.0033 24.9277 44.3503L24.9553 44.3297C25.0105 44.2747 25.0657 44.2197 25.114 44.1648C26.8802 42.3022 27.9289 39.8692 28.0738 37.2988L30.5093 11.4294L44.3632 25.9448C44.3977 25.9105 44.4391 25.883 44.4736 25.8486C45.1842 25.1407 45.6465 24.2679 45.8534 23.3469C45.9362 22.9895 45.9776 22.6184 45.9776 22.2541C45.9845 20.9689 45.5154 19.6837 44.5564 18.6802L34.3936 8.02045C33.4346 7.01701 32.1651 6.48093 30.8819 6.42595C30.5162 6.4122 30.1367 6.43282 29.778 6.49467C28.8465 6.65275 27.9496 7.06512 27.1976 7.73866C27.1631 7.77302 27.1286 7.80739 27.0941 7.84175C25.2727 9.71804 24.1826 12.1923 24.0377 14.8108L21.9265 40.8177L7.85182 26.0754C7.79662 26.1235 7.73453 26.1785 7.67933 26.2266L7.65174 26.2472C6.9618 26.9689 6.52024 27.8486 6.33396 28.7627C6.27187 29.0582 6.23737 29.3606 6.23047 29.6631C6.23047 29.8074 6.23047 29.9517 6.23737 30.096C6.31326 31.2713 6.78242 32.4259 7.65863 33.3469Z" fill="white"/></svg>