<svg xmlns="http://www.w3.org/2000/svg" xmlns:xlink="http://www.w3.org/1999/xlink"><defs><clipPath id="clip0_0_776"><rect width="59" height="59" fill="white"/></clipPath></defs><symbol id="about-1" viewBox="0 0 107 59"><g fill="currentColor"><path d="M96.8879 41.5079C97.4699 40.5969 97.7283 39.5019 97.6046 38.4099C97.3421 36.0701 95.1809 34.2375 92.6856 34.2375H84.0729C84.7058 32.0663 84.956 28.8008 84.9414 27.5596C84.9021 24.1991 82.132 21.4648 78.7653 21.4648H77.7157C76.5314 21.4648 75.5674 22.4348 75.5674 23.6271C75.5674 26.3932 74.4838 31.4843 72.5248 33.455C71.3281 34.6596 70.3266 35.1573 68.9401 35.8455L68.6231 36.0035H62.3702C61.8844 36.0035 61.4912 36.3991 61.4912 36.888V55.3172C61.4912 55.8054 61.8844 56.2017 62.3702 56.2017H68.674C69.2161 56.3898 69.8068 56.6327 70.4345 56.8957C72.6801 57.8333 75.4748 59.0002 79.2992 59.0002H87.6042C89.3025 59.0002 90.866 58.1859 91.7866 56.8226C92.4735 55.8054 92.712 54.5972 92.4805 53.4061C94.0557 52.6236 95.0959 50.9897 95.0959 49.1723C95.0959 48.8769 95.0689 48.585 95.015 48.2979C96.1812 47.7259 97.0608 46.6899 97.44 45.4021C97.835 44.0618 97.6257 42.6531 96.8879 41.5079ZM63.2493 37.7725H67.9503V54.4327H63.2493V37.7725ZM95.1311 42.0994C95.812 42.8653 96.0452 43.912 95.754 44.8997C95.4627 45.8873 94.7021 46.6374 93.7182 46.9063C93.4773 46.9717 93.2745 47.1386 93.1632 47.3633C93.0513 47.5885 93.0396 47.8509 93.1316 48.085C93.2675 48.4317 93.3373 48.7979 93.3373 49.1723C93.3373 50.4997 92.45 51.6701 91.1795 52.0186C90.9381 52.0847 90.7365 52.2515 90.6246 52.4762C90.5132 52.7014 90.5015 52.9638 90.5935 53.1979C90.9533 54.1119 90.8607 55.0459 90.3321 55.8284C89.7391 56.7064 88.7194 57.2312 87.6042 57.2312H79.2997C75.8252 57.2312 73.2098 56.1386 71.109 55.2612C70.6243 55.0589 70.1584 54.8643 69.7084 54.6939V37.4369L69.7183 37.4316C71.1394 36.7258 72.3666 36.1167 73.7683 34.7056C76.195 32.265 77.326 26.6521 77.326 23.6271C77.326 23.4101 77.5007 23.2338 77.7163 23.2338H78.7659C81.1744 23.2338 83.1563 25.1838 83.1845 27.5802C83.2044 29.3079 82.7385 33.4031 82.0236 34.6903C81.8712 34.9645 81.8747 35.2988 82.0329 35.5695C82.1912 35.8401 82.4795 36.0064 82.7913 36.0064H92.6874C94.3024 36.0064 95.6954 37.1492 95.8595 38.6098C95.9562 39.463 95.6977 40.2838 95.1322 40.9212C94.8334 41.2562 94.8334 41.7639 95.1311 42.0994Z" fill="currentColor"/><path d="M7.22903 16.0818C5.61269 16.0818 4.26327 15.7407 3.18077 15.0586C2.1131 14.3617 1.31235 13.4126 0.778511 12.2115C0.259504 10.9955 0 9.60905 0 8.05203C0 6.50983 0.266918 5.13817 0.800754 3.93704C1.33459 2.72108 2.13534 1.76462 3.20302 1.06767C4.28552 0.355891 5.64235 0 7.27352 0C8.43016 0 9.42369 0.18536 10.2541 0.556079C11.0993 0.91197 11.7815 1.40873 12.3005 2.04637C12.8195 2.68401 13.1754 3.43286 13.3681 4.29293H11.4107C11.1883 3.52184 10.7064 2.90644 9.96494 2.44675C9.23833 1.98706 8.31894 1.75721 7.20679 1.75721C5.96117 1.75721 4.95281 2.05379 4.18172 2.64694C3.42545 3.22526 2.86937 3.98894 2.51348 4.93798C2.15759 5.8722 1.97964 6.88797 1.97964 7.9853C1.97964 9.14194 2.165 10.2022 2.53572 11.1661C2.90644 12.1299 3.48476 12.901 4.27069 13.4794C5.05661 14.0429 6.05756 14.3246 7.27352 14.3246C8.01495 14.3246 8.67484 14.2208 9.25316 14.0132C9.84631 13.8056 10.3357 13.509 10.7212 13.1235C11.1216 12.7379 11.3959 12.2931 11.5442 11.7889H13.6573C13.4349 12.6489 13.0345 13.4052 12.4562 14.0577C11.8927 14.6953 11.1735 15.1921 10.2986 15.548C9.42369 15.9039 8.4005 16.0818 7.22903 16.0818Z" fill="currentColor"/><path d="M14.9962 20.2413V14.1467C15.5301 14.1467 15.9305 14.0503 16.1974 13.8575C16.4791 13.6499 16.6941 13.3756 16.8424 13.0345C16.9611 12.7379 17.0649 12.382 17.1538 11.9668C17.2428 11.5368 17.3169 11.0771 17.3763 10.5877C17.4504 10.0836 17.5023 9.57939 17.532 9.07521C17.6358 7.59233 17.7099 6.10946 17.7544 4.62658C17.7989 3.1437 17.8285 1.66082 17.8434 0.177946H27.8973V14.1467H29.7879V20.2413H27.8528V15.9039H16.9314V20.2413H14.9962ZM18.5774 14.1467H25.9621V1.93516H19.734L19.5338 8.05203C19.519 8.40792 19.4968 8.83054 19.4671 9.31989C19.4523 9.80924 19.4078 10.3282 19.3337 10.8769C19.2743 11.4107 19.1854 11.9594 19.0667 12.5229C18.9481 13.0864 18.785 13.6276 18.5774 14.1467Z" fill="currentColor"/><path d="M32.2121 15.9039V0.177946H42.7776V1.93516H34.1473V7.22903H41.9101V9.00848H34.1473V14.1467H42.7776V15.9039H32.2121Z" fill="currentColor"/><path d="M44.1645 16.0596V14.1467C44.5352 14.1467 44.8615 14.0725 45.1432 13.9242C45.4249 13.7611 45.6622 13.5387 45.855 13.2569C46.0626 12.9752 46.2109 12.6638 46.2998 12.3227C46.4185 11.8779 46.5 11.4182 46.5445 10.9436C46.6038 10.4543 46.6409 9.96494 46.6557 9.47559C46.6854 8.98624 46.7002 8.51913 46.7002 8.07427L46.8559 0.177946H57.3325V15.9039H55.3973V1.93516H48.7911L48.6576 6.82865C48.628 7.91115 48.5983 8.95658 48.5686 9.96494C48.5538 10.9585 48.4648 11.863 48.3017 12.6786C48.1534 13.4942 47.8569 14.1763 47.412 14.725C47.0858 15.1254 46.6557 15.4442 46.1219 15.6814C45.6029 15.9039 44.9504 16.0299 44.1645 16.0596Z" fill="currentColor"/><path d="M59.498 15.9039L65.348 0.177946H68.1284L73.9561 15.9039H71.8652L70.6196 12.5229H62.8345L61.5889 15.9039H59.498ZM63.4796 10.7657H69.9746L66.7271 1.86843L63.4796 10.7657Z" fill="currentColor"/><path d="M76.1119 15.9039V0.177946H78.0471V7.29576H86.4773V0.177946H88.4124V15.9039H86.4773V9.07521H78.0471V15.9039H76.1119Z" fill="currentColor"/><path d="M98.8125 16.0818C97.1813 16.0818 95.8171 15.7333 94.7197 15.0364C93.6224 14.3394 92.792 13.383 92.2285 12.167C91.6798 10.9511 91.4055 9.57939 91.4055 8.05203C91.4055 6.50983 91.6798 5.13076 92.2285 3.9148C92.792 2.69884 93.6224 1.74238 94.7197 1.04543C95.8171 0.348476 97.1813 0 98.8125 0C100.444 0 101.8 0.348476 102.883 1.04543C103.98 1.74238 104.803 2.69884 105.352 3.9148C105.915 5.13076 106.197 6.50983 106.197 8.05203C106.197 9.57939 105.915 10.9511 105.352 12.167C104.803 13.383 103.98 14.3394 102.883 15.0364C101.8 15.7333 100.444 16.0818 98.8125 16.0818ZM98.8125 14.3246C100.058 14.3246 101.081 14.0429 101.882 13.4794C102.683 12.901 103.269 12.1374 103.639 11.1883C104.025 10.2393 104.218 9.19384 104.218 8.05203C104.218 7.19196 104.106 6.38379 103.884 5.62752C103.676 4.85643 103.35 4.18172 102.905 3.60339C102.46 3.02507 101.897 2.57279 101.215 2.24656C100.533 1.92033 99.7319 1.75721 98.8125 1.75721C97.5817 1.75721 96.5585 2.04637 95.7429 2.62469C94.9422 3.20302 94.3416 3.9667 93.9412 4.91574C93.5557 5.86478 93.3629 6.91021 93.3629 8.05203C93.3629 9.17901 93.5557 10.217 93.9412 11.1661C94.3268 12.1151 94.9199 12.8788 95.7207 13.4571C96.5363 14.0354 97.5669 14.3246 98.8125 14.3246Z" fill="currentColor"/><path d="M0.84524 41.3176V25.5917H6.36155C7.14747 25.5917 7.85925 25.6584 8.49689 25.7919C9.13453 25.9105 9.68319 26.1181 10.1429 26.4147C10.6174 26.7113 10.9807 27.1117 11.2328 27.6158C11.4849 28.12 11.6109 28.7576 11.6109 29.5287C11.6109 30.3295 11.4256 31.0413 11.0549 31.6641C10.699 32.2869 10.1429 32.7466 9.38662 33.0432C10.395 33.2211 11.1512 33.6511 11.6554 34.3333C12.1596 35.0006 12.4117 35.868 12.4117 36.9357C12.4117 37.781 12.2486 38.4853 11.9223 39.0488C11.6109 39.6123 11.1661 40.0646 10.5877 40.4057C10.0243 40.7319 9.37179 40.9691 8.63035 41.1174C7.88891 41.2509 7.09557 41.3176 6.25033 41.3176H0.84524ZM2.7804 39.5604H6.1836C6.64329 39.5604 7.11781 39.5382 7.60716 39.4937C8.11134 39.4344 8.57845 39.3232 9.00848 39.16C9.43852 38.9821 9.78699 38.7078 10.0539 38.337C10.3208 37.9663 10.4543 37.4696 10.4543 36.8467C10.4543 36.3129 10.3505 35.8755 10.1429 35.5344C9.95011 35.1933 9.68319 34.9264 9.34213 34.7336C9.0159 34.5409 8.63776 34.4074 8.20773 34.3333C7.77769 34.2591 7.34024 34.2221 6.89538 34.2221H2.7804V39.5604ZM2.7804 32.4871H5.80547C6.35413 32.4871 6.86572 32.4426 7.34025 32.3536C7.81477 32.2498 8.22997 32.0867 8.58586 31.8643C8.94175 31.6418 9.21609 31.3527 9.40886 30.9968C9.61646 30.6409 9.72026 30.196 9.72026 29.6622C9.72026 28.9801 9.56456 28.4759 9.25316 28.1497C8.94175 27.8234 8.53396 27.6084 8.02978 27.5046C7.52561 27.4008 6.97694 27.3489 6.38379 27.3489H2.7804V32.4871Z" fill="currentColor"/><path d="M21.4381 41.3176V25.5917H26.8876C28.0443 25.5917 29.0378 25.7845 29.8682 26.17C30.6986 26.5407 31.3289 27.1117 31.7589 27.8828C32.2038 28.6538 32.4262 29.6325 32.4262 30.8188C32.4262 31.9755 32.1667 32.9542 31.6477 33.7549C31.1435 34.5409 30.4466 35.134 29.5568 35.5344C28.6671 35.9348 27.6439 36.135 26.4873 36.135H23.3732V41.3176H21.4381ZM23.3732 34.3778H26.3983C27.5994 34.3778 28.5707 34.096 29.3121 33.5325C30.0684 32.9542 30.4466 32.02 30.4466 30.7299C30.4466 29.6029 30.1426 28.7576 29.5346 28.1942C28.9266 27.6307 28.0146 27.3489 26.7987 27.3489H23.3732V34.3778Z" fill="currentColor"/><path d="M41.9633 41.5178V38.9598H40.1838C38.9975 38.9302 37.9892 38.6484 37.1588 38.1146C36.3432 37.5808 35.7278 36.8542 35.3126 35.9348C34.8974 35.0154 34.6898 33.9774 34.6898 32.8207C34.7046 31.6048 34.9641 30.5593 35.4683 29.6844C35.9725 28.8095 36.662 28.1348 37.5369 27.6603C38.4118 27.1858 39.4053 26.9485 40.5175 26.9485H41.9633V24.7242H43.8985V26.9485H45.322C46.449 26.9485 47.4499 27.1858 48.3248 27.6603C49.1997 28.1348 49.8893 28.8095 50.3935 29.6844C50.8976 30.5593 51.1571 31.6048 51.172 32.8207C51.1868 33.9774 50.9718 35.0154 50.5269 35.9348C50.0821 36.8542 49.437 37.5808 48.5918 38.1146C47.7613 38.6484 46.753 38.9302 45.5667 38.9598H43.8985V41.5178H41.9633ZM40.5842 37.2916H41.9633V28.6168H40.6732C39.8428 28.6168 39.1236 28.7947 38.5156 29.1506C37.9225 29.5065 37.4628 29.9959 37.1365 30.6187C36.8103 31.2415 36.6472 31.9607 36.6472 32.7762C36.6472 33.6363 36.7806 34.4074 37.0476 35.0895C37.3145 35.7717 37.7371 36.3129 38.3154 36.7133C38.8937 37.0988 39.65 37.2916 40.5842 37.2916ZM43.8985 37.2916H45.2775C46.2117 37.2916 46.968 37.0988 47.5463 36.7133C48.1247 36.3129 48.5473 35.7717 48.8142 35.0895C49.0811 34.4074 49.2146 33.6363 49.2146 32.7762C49.2146 31.9607 49.0515 31.2415 48.7252 30.6187C48.399 29.9959 47.9319 29.5065 47.3239 29.1506C46.7308 28.7947 46.019 28.6168 45.1886 28.6168H43.8985V37.2916Z" fill="currentColor"/></g></symbol><symbol id="about-2" viewBox="0 0 59 59"><g fill="none"><path d="M50.1579 47.7186L40.094 35.8561H33.7378L29.5004 31.6186L37.9753 18.9063H52.8063M14.6694 8.31271L21.7454 15.3888C22.594 16.2374 22.8553 17.51 22.4096 18.6243L19.6611 25.4954C19.2055 26.6343 18.1024 27.3812 16.8757 27.3812H4.07575M57.0438 29.4999C57.0438 44.7117 44.7122 57.0433 29.5004 57.0433C14.2886 57.0433 1.95703 44.7117 1.95703 29.4999C1.95703 14.2881 14.2886 1.95654 29.5004 1.95654C44.7122 1.95654 57.0438 14.2881 57.0438 29.4999Z" stroke="#currentColor" stroke-width="2" stroke-linecap="round" stroke-linejoin="round"/></g></symbol><symbol id="about-3" viewBox="0 0 59 59"><g fill="none"><g clip-path="url(#clip0_0_776)"><path d="M56.9868 15.3458C56.9444 14.8554 55.8499 13.9137 55.3867 13.7457C54.9224 13.5767 54.4026 13.6917 54.0533 14.0392L47.0463 21.0462L37.9449 11.9448L45.0921 4.82448C45.4419 4.47636 45.556 3.95844 45.3875 3.49665C45.2173 3.03395 44.0951 2.05372 43.6019 2.01124C39.2613 1.63866 35.0083 3.18257 31.9333 6.24639C27.7219 10.4423 26.6067 16.5695 28.5816 21.7921C28.3657 21.9733 28.1527 22.1653 27.9426 22.3723L4.08518 44.7997C4.07677 44.8078 4.06847 44.8168 4.05937 44.8248C1.25365 47.6201 1.25365 52.1682 4.05937 54.9639C6.86555 57.759 11.3975 57.725 14.2027 54.9297C14.2148 54.9185 14.2259 54.9072 14.2369 54.8947L36.5527 30.942C36.7561 30.7385 36.945 30.5255 37.1231 30.3069C42.3669 32.2779 48.5211 31.1695 52.7362 26.9708C55.8105 23.9068 57.3613 19.6694 56.9868 15.3458Z" stroke="#currentColor" stroke-width="2" stroke-linejoin="round"/></g></g></symbol><symbol id="about-bg" viewBox="0 0 1440 1024"><g fill="none"><rect x="334.961" y="593.309" width="1651.99" height="1651.99" rx="514" transform="rotate(102.854 334.961 593.309)" fill="#5EBBC5"/><rect x="1758.64" y="-431.977" width="1651.99" height="1651.99" rx="514" transform="rotate(102.854 1758.64 -431.977)" fill="#00616B"/><path fill-rule="evenodd" clip-rule="evenodd" d="M228.894 910.446C42.3495 846.574 -87.5904 682.534 -113.399 493.956C73.1449 557.828 203.085 721.868 228.894 910.446Z" fill="white"/></g></symbol><symbol id="burger" viewBox="0 0 24 24"><g fill="none"><path d="M20 18H4M20 12H4M20 6H4" stroke="white" stroke-width="2" stroke-linecap="round"/></g></symbol><symbol id="close" viewBox="0 0 24 24"><g fill="none"><path d="M18 6L6 18M18 18L6 6" stroke="white" stroke-width="2" stroke-linecap="round"/></g></symbol><symbol id="footer-logo" viewBox="0 0 200 27"><g fill="none"><path d="M0 21.7452V4.09208C0 2.29336 1.44852 0.835117 3.23526 0.835117C4.21796 0.835117 5.14962 1.2848 5.76221 2.05567L20.1582 18.1028H20.2347V0C23.119 0 25.4545 2.35118 25.4545 5.25482V23.7173C25.4545 25.5289 23.9933 27 22.1938 27C21.1983 27 20.2603 26.5439 19.6413 25.7602L5.29 9.68737H5.21343V26.9936C2.33551 27.0064 0 24.6488 0 21.7452Z" fill="white"/><path d="M29.8184 13.5C29.8184 5.79758 35.9664 0 43.9811 0C52.034 0 58.182 5.80398 58.182 13.5C58.182 21.196 52.034 27 43.9811 27C35.9664 27.0064 29.8184 21.2024 29.8184 13.5ZM52.9259 13.5C52.9259 8.69957 49.3072 4.72372 43.9811 4.72372C38.6868 4.72372 35.0744 8.70596 35.0744 13.5C35.0744 18.294 38.6931 22.2763 43.9811 22.2763C49.3072 22.2763 52.9259 18.3004 52.9259 13.5Z" fill="white"/><path d="M69.3617 24.4975L59.6367 0.729492H62.3098C64.1237 0.729492 65.753 1.84231 66.434 3.54048L73.034 20.1105H73.1104L79.7103 3.54048C80.385 1.84231 82.0206 0.729492 83.8345 0.729492H86.5458L76.7827 24.4975C76.159 26.0091 74.6951 26.9997 73.0785 26.9997C71.4492 27.0062 69.9854 26.0156 69.3617 24.4975Z" fill="white"/><path d="M82.9082 26.9998L93.5877 3.22498C94.2684 1.70318 95.7776 0.729492 97.4344 0.729492C99.0912 0.729492 100.6 1.70318 101.281 3.21853L111.999 26.9933H109.193C107.343 26.9933 105.661 25.91 104.897 24.2141L103.689 21.551H91.2181L90.0108 24.2141C89.2401 25.9036 87.564 26.9933 85.7145 26.9933H82.9082V26.9998ZM92.9841 17.0501H101.885L97.4922 7.06815H97.4151L92.9841 17.0501Z" fill="white"/><path d="M114.908 26.9998V4.8177C114.908 2.5608 116.722 0.729492 118.958 0.729492H125.595C133.631 0.729492 139.635 6.13315 139.635 13.8646C139.635 21.5961 133.631 26.9998 125.595 26.9998H114.908ZM120.178 22.228H125.601C130.903 22.228 134.378 18.7008 134.378 13.8582C134.378 9.01552 130.91 5.48832 125.601 5.48832H120.178V22.228Z" fill="white"/><path d="M144 26.9998V0.729492C146.813 0.729492 149.091 3.08956 149.091 6.00418V26.9933H144V26.9998Z" fill="white"/><path d="M152 26.9998L162.68 3.22498C163.36 1.70318 164.869 0.729492 166.526 0.729492C168.183 0.729492 169.692 1.70318 170.373 3.21853L181.091 26.9933H178.285C176.435 26.9933 174.753 25.91 173.982 24.2141L172.775 21.551H160.303L159.096 24.2141C158.326 25.9036 156.649 26.9933 154.8 26.9933H152V26.9998ZM162.082 17.0501H170.983L166.59 7.06815H166.513L162.082 17.0501Z" fill="white"/><path d="M184 26.9998V0.729492C186.943 0.729492 189.329 3.10891 189.329 6.04287V22.3054H200C200 24.8976 197.892 26.9933 195.298 26.9933H184V26.9998Z" fill="white"/></g></symbol><symbol id="icon-close" viewBox="0 0 20 20"><g fill="none"><path d="M.293 18.291a1 1 0 101.414 1.414L10 11.413l8.292 8.292a1 1 0 101.414-1.414l-8.292-8.292 8.292-8.292A1 1 0 1018.291.293L9.999 8.585 1.707.293A1 1 0 10.293 1.707L8.585 10 .293 18.291z"/></g></symbol><symbol id="intro-1" viewBox="0 0 111 110"><g fill="none"><path d="M37.0962 27.0302H57.7212M37.0962 30.2033H51.6923M37.0962 33.3764H45.9808M61.2115 39.4052H73.2692M67.2404 45.4341V33.3764M53.5962 95.41H51.375C49.6226 95.41 48.2019 93.9893 48.2019 92.2369V90.0158H62.4808V92.2374C62.4808 93.9899 61.0601 95.41 59.3077 95.41H57.4038M53.5962 95.41V100.17C53.5962 100.52 53.8803 100.804 54.2308 100.804H55.5H56.7692C57.1197 100.804 57.4038 100.52 57.4038 100.17V95.41M53.5962 95.41H57.4038M47.8846 11.4821C48.8365 9.78978 55.5 2.75612 63.4327 11.4821M55.5 22.9052H35.9231C34.8185 22.9052 33.9231 23.8006 33.9231 24.9052V47.2418C33.9231 48.3463 34.8185 49.2418 35.9231 49.2418H55.5H75.0769C76.1815 49.2418 77.0769 48.3463 77.0769 47.2418V24.9052C77.0769 23.8006 76.1815 22.9052 75.0769 22.9052H55.5ZM22.5 70.0156C22.5 49.468 22.5 43.1913 22.5 20.8413C22.5 17.3527 24.7635 14.2627 28.1918 13.6167C40.0044 11.3906 62.2317 9.77878 82.4311 13.6281C86.0243 14.3128 88.5 17.5327 88.5 21.1906V70.0287C88.5 76.0698 85.5444 81.8835 80.0646 84.4263C64.2315 91.7732 46.7685 91.7732 30.9354 84.4263C25.4556 81.8835 22.5 76.0566 22.5 70.0156Z" stroke="white" stroke-width="2"/></g></symbol><symbol id="intro-2" viewBox="0 0 111 110"><g fill="none"><path d="M69.5828 31.5876C73.0107 31.5876 75.7998 28.7986 75.7998 25.3703V11.2173C75.7998 7.78906 73.0107 5 69.5828 5H43.7764C40.3485 5 37.5594 7.78906 37.5594 11.2173V25.3703C37.5594 28.7986 40.3485 31.5876 43.7764 31.5876H52.659V38.9462H48.7119L48.6998 38.4414C48.6481 36.2912 47.3952 34.4132 45.4297 33.54C43.4649 32.6669 41.2306 32.9963 39.6007 34.3994L34.3506 38.9204C34.3038 38.9607 34.2604 39.0048 34.2218 39.0527C32.8937 40.6763 31.0358 40.7625 29.7395 40.2997C28.4431 39.8376 27.0586 38.5958 27.0586 36.4976V31.3126L34.514 28.2796C34.913 28.1173 35.1735 27.7297 35.1735 27.299V16.8847C35.1735 16.8633 35.1727 16.8421 35.1714 16.8211V6.05893C35.1714 5.47418 34.6973 5.00037 34.1129 5.00037H19.1084C18.524 5.00037 18.0498 5.47416 18.0498 6.05893V16.8847V27.2976V27.299C18.0498 27.7294 18.3103 28.117 18.7093 28.2793L24.9415 30.8167V36.4976C24.9415 39.133 26.5451 41.4082 29.0282 42.2938C31.4768 43.1677 34.1273 42.4513 35.7993 40.4669L40.9818 36.0038C42.0004 35.1272 43.3408 34.9284 44.5703 35.4749C45.7983 36.0204 46.5509 37.1482 46.5826 38.492L46.5935 38.9462H44.7722C40.795 38.9462 37.5594 42.1818 37.5594 46.1587V92.5233C37.5594 94.6887 38.5186 96.6341 40.0342 97.9573C40.5317 101.385 42.3058 103.781 44.5455 103.781C46.373 103.781 47.8905 102.186 48.6574 99.7364H64.7019C65.4688 102.186 66.9862 103.781 68.8138 103.781C71.0535 103.781 72.8275 101.385 73.325 97.9573C74.8406 96.6341 75.7998 94.6887 75.7998 92.5233V46.1587C75.7998 42.1818 72.5642 38.9462 68.587 38.9462H60.6995V31.5876H69.5828ZM33.0543 7.11749V15.8261H20.167V7.11749H33.0543ZM20.167 26.5857V17.9432H33.0564V26.5867L26.6086 29.2097L20.167 26.5871V26.5857ZM73.6827 46.1587V92.5233C73.6827 95.3333 71.3967 97.6193 68.587 97.6193H44.7722C41.9625 97.6193 39.6765 95.3333 39.6765 92.5233V46.1587C39.6765 43.3489 41.9625 41.0633 44.7722 41.0633H68.587C71.3967 41.0633 73.6827 43.3489 73.6827 46.1587ZM68.8137 101.664C68.1584 101.664 67.4608 100.933 66.9637 99.7364H68.587C69.3577 99.7364 70.1003 99.6144 70.7972 99.3895C70.297 100.79 69.5301 101.664 68.8137 101.664ZM44.5455 101.664C43.8291 101.664 43.0622 100.79 42.562 99.3896C43.2589 99.6144 44.0015 99.7364 44.7722 99.7364H46.3954C45.8984 100.933 45.2008 101.664 44.5455 101.664ZM54.7761 38.9462V31.5876H58.5824V38.9462H54.7761ZM39.6765 11.2173C39.6765 8.95651 41.5159 7.11713 43.7764 7.11713H69.5828C71.8433 7.11713 73.6827 8.95651 73.6827 11.2173V25.3703C73.6827 27.6311 71.8433 29.4705 69.5828 29.4705H43.7764C41.5159 29.4705 39.6765 27.6311 39.6765 25.3703V11.2173Z" fill="white"/><path d="M44.6927 43.8149C43.0352 43.8149 41.6865 45.1636 41.6865 46.8218V50.2914C41.6865 51.9495 43.0352 53.2982 44.6927 53.2982H68.668C70.3261 53.2982 71.6748 51.9495 71.6748 50.2914V46.8218C71.6748 45.1636 70.3261 43.8149 68.668 43.8149H44.6927ZM69.5577 46.8218V50.2914C69.5577 50.782 69.1587 51.1811 68.668 51.1811H44.6927C44.2027 51.1811 43.8036 50.7821 43.8036 50.2914V46.8218C43.8036 46.3311 44.2027 45.932 44.6927 45.932H68.668C69.1587 45.9321 69.5577 46.3311 69.5577 46.8218Z" fill="white"/><path d="M59.1649 57.1177H54.1967C52.3428 57.1177 50.835 58.6259 50.835 60.4798V61.7161C50.835 63.57 52.3429 65.0782 54.1967 65.0782H59.1649C61.0188 65.0782 62.5266 63.57 62.5266 61.7161V60.4798C62.5266 58.6259 61.0187 57.1177 59.1649 57.1177ZM60.4095 61.7161C60.4095 62.4025 59.8513 62.9611 59.1649 62.9611H54.1967C53.5103 62.9611 52.9521 62.4025 52.9521 61.7161V60.4798C52.9521 59.7934 53.5103 59.2348 54.1967 59.2348H59.1649C59.8513 59.2348 60.4095 59.7934 60.4095 60.4798V61.7161Z" fill="white"/><path d="M44.5459 26.6806H68.8134C69.3978 26.6806 69.872 26.2068 69.872 25.622V10.9663C69.872 10.3815 69.3978 9.90771 68.8134 9.90771H44.5459C43.9615 9.90771 43.4873 10.3815 43.4873 10.9663V25.622C43.4873 26.2068 43.9615 26.6806 44.5459 26.6806ZM45.6044 12.0248H67.7549V24.5635H45.6044V12.0248Z" fill="white"/></g></symbol><symbol id="intro-3" viewBox="0 0 111 110"><g fill="none"><path d="M22.4286 71.7064L71.1628 22.991M22.4286 71.7064C22.4286 71.7064 37.3966 86.6687 37.7511 87.023M22.4286 71.7064C21.5775 70.8556 20.1586 70.8555 19.3074 71.7064C18.0295 72.9837 14.972 76.0402 13.1174 77.8941M71.1628 22.991C70.3117 22.1402 70.3117 20.722 71.163 19.8711L77.458 13.5785M71.1628 22.991L86.4886 38.3109M37.7511 87.023C38.6024 87.874 38.6024 89.2922 37.7511 90.1431M37.7511 87.023C56.8248 67.9566 86.4065 38.3868 86.4853 38.308C86.487 38.3063 86.4869 38.3092 86.4886 38.3109V38.3109M37.7511 90.1431C35.9937 91.8767 34.4878 93.4053 34.4878 93.4053L37.8907 96.8069M37.7511 90.1431L31.5611 96.3308M37.7511 90.1431L41.1538 93.5451M89.6592 38.2554C88.8089 39.1053 87.3401 39.1587 86.4886 38.3109M89.6592 38.2554C89.6592 38.2554 91.1647 36.727 92.9222 34.9934L96.327 38.397M89.6592 38.2554L93.064 41.6589M89.6592 38.2554L95.9015 32.0151M96.327 38.397L96.8425 37.8818C97.4692 37.2553 98.485 37.2554 99.1117 37.8818V37.8818C99.7387 38.5086 99.7387 39.525 99.1116 40.1518L98.5971 40.6662M96.327 38.397L93.064 41.6589M98.5971 40.6662C98.5971 40.6662 99.984 42.0526 100.297 42.3659C100.611 42.6792 100.54 43.258 100.226 43.5713L98.0984 45.6987C97.7849 46.012 97.3477 45.9411 97.0343 45.6278L95.334 43.9281M98.5971 40.6662L95.334 43.9281M93.064 41.6589L92.5863 42.1365C91.9593 42.7632 91.9593 43.7797 92.5863 44.4064V44.4064C93.2129 45.0329 94.2287 45.0329 94.8554 44.4064L95.334 43.9281M77.458 13.5785L78.3986 12.6382C79.2497 11.7872 80.6685 11.7873 81.5198 12.6382L87.1925 18.3089M77.458 13.5785L95.9015 32.0151M95.9015 32.0151L96.8421 31.0748C97.6934 30.2239 97.6933 28.8057 96.8423 27.955L91.1651 22.2799M13.1174 77.8941C12.8851 78.1263 12.3924 78.6189 12.2137 78.7975C11.3626 79.6486 11.2207 81.2086 12.0719 82.0595L17.7447 87.7301M13.1174 77.8941L31.5611 96.3308M31.5611 96.3308L30.3736 97.5178C29.5226 98.3689 28.2456 98.2271 27.3944 97.3762L21.7172 91.7012M87.1925 18.3089L92.2132 13.2902C92.6037 12.8998 93.2366 12.8998 93.6271 13.2902L96.1852 15.8473C96.5759 16.2378 96.5759 16.8712 96.1852 17.2618L91.1651 22.2799M87.1925 18.3089L91.1651 22.2799M17.7447 87.7301L13.6099 91.8634C13.2192 92.254 13.2192 92.8873 13.6099 93.2779L16.168 95.8349C16.5585 96.2253 17.1914 96.2253 17.5819 95.8349L21.7172 91.7012M17.7447 87.7301L21.7172 91.7012M41.1538 93.5451L41.7035 92.9956C42.3302 92.3692 43.3459 92.3692 43.9726 92.9956V92.9956C44.5996 93.6224 44.5996 94.6388 43.9726 95.2656L43.4238 95.8142M41.1538 93.5451L37.4472 97.2502C36.8202 97.877 36.8202 98.8935 37.4472 99.5202V99.5202C38.0739 100.147 39.0897 100.147 39.7164 99.5202L40.1607 99.076M43.4238 95.8142C43.4238 95.8142 44.8426 97.2324 45.1263 97.516C45.4101 97.7997 45.3918 98.3852 45.1081 98.6689C44.8243 98.9525 43.2637 100.513 42.9799 100.796C42.6962 101.08 42.147 101.062 41.8632 100.778C41.5795 100.494 40.1607 99.076 40.1607 99.076M43.4238 95.8142L40.1607 99.076M68.4723 41.3202L61.6401 48.2145C60.4664 49.3989 58.5521 49.3989 57.3783 48.2145L57.0662 47.8995C55.9074 46.7302 55.9074 44.8455 57.0662 43.6761L63.8984 36.7819C65.0721 35.5975 66.9864 35.5975 68.1602 36.7819L68.4723 37.0968C69.6311 38.2662 69.6311 40.1509 68.4723 41.3202Z" stroke="white" stroke-width="2"/></g></symbol><symbol id="intro-bg" viewBox="0 0 1440 1024"><g fill="none"><rect x="686.09" y="451.898" width="1651.99" height="1651.99" rx="514" transform="rotate(-65.3058 686.09 451.898)" fill="#5EBBC5"/><rect x="-917.669" y="1163.26" width="1651.99" height="1651.99" rx="514" transform="rotate(-65.3058 -917.669 1163.26)" fill="#00616B"/><path fill-rule="evenodd" clip-rule="evenodd" d="M854.97 163.271C1024.44 264.059 1117.96 451.27 1104.53 641.131C935.055 540.343 841.538 353.133 854.97 163.271Z" fill="white"/></g></symbol><symbol id="mobile-bg" viewBox="0 0 375 3249"><g fill="none"><path d="M239.162 587.243C271.767 477.288 387.335 414.584 497.289 447.188L738.982 518.858C848.937 551.463 911.641 667.03 879.037 776.985L807.367 1018.68C774.762 1128.63 659.195 1191.34 549.24 1158.73L307.547 1087.06C197.592 1054.46 134.888 938.89 167.493 828.936L239.162 587.243Z" fill="#5EBBC5"/><path d="M-137.471 -13.2193C-104.866 -123.174 10.701 -185.878 120.656 -153.273L362.349 -81.6039C472.303 -48.999 535.008 66.5685 502.403 176.523L430.733 418.216C398.128 528.171 282.561 590.875 172.606 558.27L-69.0868 486.601C-179.041 453.996 -241.746 338.428 -209.141 228.474L-137.471 -13.2193Z" fill="#00616B"/><path d="M423.325 439.101C392.759 512.664 323.268 560.819 246.571 566.358C277.137 492.795 346.628 444.64 423.325 439.101Z" fill="white"/><path d="M-115.2 2003.19C-36.3375 1902.36 109.326 1884.56 210.149 1963.42L431.769 2136.77C532.592 2215.64 550.395 2361.3 471.532 2462.12L298.183 2683.74C219.321 2784.57 73.6569 2802.37 -27.1659 2723.51L-248.786 2550.16C-349.609 2471.29 -367.411 2325.63 -288.549 2224.81L-115.2 2003.19Z" fill="#5EBBC5"/><path d="M-260.482 1225.54C-181.619 1124.72 -35.9555 1106.92 64.8673 1185.78L286.488 1359.13C387.31 1437.99 405.113 1583.66 326.25 1684.48L152.901 1906.1C74.0389 2006.92 -71.625 2024.72 -172.448 1945.86L-394.068 1772.51C-494.891 1693.65 -512.693 1547.99 -433.831 1447.16L-260.482 1225.54Z" fill="#00616B"/><path d="M136.661 1924.75C74.8113 1988.62 -17.055 2010.18 -98.9591 1984.54C-37.1098 1920.66 54.7566 1899.11 136.661 1924.75Z" fill="white"/></g></symbol><symbol id="tablet-bg" viewBox="0 0 768 2001"><g fill="none"><rect x="550.039" y="243.476" width="1651.99" height="1651.99" rx="514" transform="rotate(1.26709 550.039 243.476)" fill="#5EBBC5"/><rect x="-740.309" y="-945.256" width="1651.99" height="1651.99" rx="514" transform="rotate(1.26709 -740.309 -945.256)" fill="#00616B"/><path fill-rule="evenodd" clip-rule="evenodd" d="M882.017 283.682C856.915 479.253 722.318 639.493 542.768 702.653C567.87 507.082 702.467 346.842 882.017 283.682Z" fill="white"/></g></symbol><symbol id="team-bg" viewBox="0 0 1440 1024"><g fill="none"><rect x="512.897" y="395.833" width="1651.99" height="1651.99" rx="514" transform="rotate(-72.0083 512.897 395.833)" fill="#5EBBC5"/><rect x="-996.875" y="1289.51" width="1651.99" height="1651.99" rx="514" transform="rotate(-72.0083 -996.875 1289.51)" fill="#00616B"/><path fill-rule="evenodd" clip-rule="evenodd" d="M646.937 89.4672C827.012 169.787 941.741 344.803 950.56 534.935C770.484 454.615 655.756 279.599 646.937 89.4672Z" fill="white"/></g></symbol></svg>